<svg width="32" height="32" viewBox="0 0 32 32" fill="none" xmlns="http://www.w3.org/2000/svg">
<path d="M13.6667 27C16.7434 27 19.5717 25.9417 21.8284 24.1867L29.155 31.5133L31.5117 29.1567L24.185 21.83C25.9417 19.5717 27 16.7433 27 13.6667C27 6.31501 21.0184 0.333344 13.6667 0.333344C6.31504 0.333344 0.333374 6.31501 0.333374 13.6667C0.333374 21.0183 6.31504 27 13.6667 27ZM13.6667 3.66668C19.1817 3.66668 23.6667 8.15168 23.6667 13.6667C23.6667 19.1817 19.1817 23.6667 13.6667 23.6667C8.15171 23.6667 3.66671 19.1817 3.66671 13.6667C3.66671 8.15168 8.15171 3.66668 13.6667 3.66668Z" fill="white"/>
</svg>
