<?xml version="1.0" encoding="utf-8"?>
<!-- Generator: Adobe Illustrator 22.0.1, SVG Export Plug-In . SVG Version: 6.00 Build 0)  -->
<svg version="1.1" id="Layer_1" xmlns="http://www.w3.org/2000/svg" xmlns:xlink="http://www.w3.org/1999/xlink" x="0px" y="0px"
	 viewBox="0 0 622.4 629.2" style="enable-background:new 0 0 622.4 629.2;" xml:space="preserve">
<style type="text/css">
	.st0{fill-rule:evenodd;clip-rule:evenodd;fill:url(#SVGID_1_);}
	.st1{fill:#2BC27D;}
</style>
<linearGradient id="SVGID_1_" gradientUnits="userSpaceOnUse" x1="-65.7871" y1="588.1612" x2="489.0683" y2="-28.0681">
	<stop  offset="8.202770e-02" style="stop-color:#00BAFF"/>
	<stop  offset="0.3389" style="stop-color:#1050A9"/>
	<stop  offset="0.5445" style="stop-color:#1D0068"/>
</linearGradient>
<path class="st0" d="M253.1,309l-109.9,83.8l85.6-14.8c-23.2,65.5-45.2,127.2-61.7,173c-17.8,49.3-60.1,78.1-112.5,78.1
	c-28.6,0-54.5,0-54.5,0L198.5,70.4c13.7-38.8,55-70.3,101-70.3h62.2C361.7,0.2,308,153.7,253.1,309z"/>
<path class="st1" d="M334.8,403.2c60.5,0,123.2-17,173.4-51.9c52-35.6,89.2-90.9,106.6-151.5c8.3-28,10.3-58,3.8-86.6
	c-2.1-9.9-6.1-19.3-9.3-29c-7.9-16.2-19-30.9-32.6-42.7c-15.3-15.3-35.1-25.4-55.4-32.1c-21.5-7.1-45.3-8.7-67.8-8.4
	c-58.4,0-48.1,0-48.1,0L284.8,340.5l-141.6,52.2l-4.9,12.5C138.3,405.2,301.8,405.2,334.8,403.2z"/>
</svg>
